<mxfile host="app.diagrams.net" modified="2022-10-19T12:02:07.923Z" agent="5.0 (Windows NT 10.0; Win64; x64) AppleWebKit/537.36 (KHTML, like Gecko) Chrome/104.0.0.0 Safari/537.36" etag="S_STisoByxUm-ufjGoWA" version="17.4.0" type="github">
  <diagram id="91U0QUzROzTtz7Qb56GV" name="Page-1">
    <mxGraphModel dx="1888" dy="547" grid="1" gridSize="10" guides="1" tooltips="1" connect="1" arrows="1" fold="1" page="1" pageScale="1" pageWidth="850" pageHeight="1100" math="0" shadow="0">
      <root>
        <mxCell id="0" />
        <mxCell id="1" parent="0" />
        <mxCell id="dberlZsKx05mS-MW_dch-7" style="edgeStyle=orthogonalEdgeStyle;rounded=0;orthogonalLoop=1;jettySize=auto;html=1;exitX=1;exitY=0.5;exitDx=0;exitDy=0;strokeWidth=3;endArrow=none;endFill=0;" parent="1" source="dberlZsKx05mS-MW_dch-1" target="dberlZsKx05mS-MW_dch-3" edge="1">
          <mxGeometry relative="1" as="geometry" />
        </mxCell>
        <mxCell id="dberlZsKx05mS-MW_dch-1" value="&lt;b&gt;Savinien Eucher Gervais DAMPIERRE&lt;/b&gt;" style="rounded=1;whiteSpace=wrap;html=1;fillColor=#dae8fc;strokeColor=#6c8ebf;" parent="1" vertex="1">
          <mxGeometry x="1900" y="10" width="120" height="60" as="geometry" />
        </mxCell>
        <mxCell id="dberlZsKx05mS-MW_dch-8" style="edgeStyle=orthogonalEdgeStyle;rounded=0;orthogonalLoop=1;jettySize=auto;html=1;exitX=0;exitY=0.5;exitDx=0;exitDy=0;strokeWidth=3;endArrow=baseDash;endFill=0;" parent="1" source="dberlZsKx05mS-MW_dch-2" edge="1">
          <mxGeometry relative="1" as="geometry">
            <mxPoint x="2040" y="110" as="targetPoint" />
          </mxGeometry>
        </mxCell>
        <mxCell id="dberlZsKx05mS-MW_dch-2" value="&lt;b&gt;Bertille Sylvie DAMPIERRE&amp;nbsp;&lt;/b&gt;née Kancel" style="rounded=1;whiteSpace=wrap;html=1;fillColor=#f8cecc;strokeColor=#b85450;" parent="1" vertex="1">
          <mxGeometry x="2060" y="10" width="120" height="60" as="geometry" />
        </mxCell>
        <mxCell id="JoRg5VCLtStinsreE8dI-134" style="edgeStyle=orthogonalEdgeStyle;rounded=0;orthogonalLoop=1;jettySize=auto;html=1;exitX=1;exitY=0.5;exitDx=0;exitDy=0;endArrow=none;endFill=0;strokeWidth=3;" parent="1" source="dberlZsKx05mS-MW_dch-3" target="JoRg5VCLtStinsreE8dI-6" edge="1">
          <mxGeometry relative="1" as="geometry">
            <Array as="points">
              <mxPoint x="2200" y="120" />
              <mxPoint x="2200" y="180" />
              <mxPoint x="-330" y="180" />
            </Array>
          </mxGeometry>
        </mxCell>
        <mxCell id="dberlZsKx05mS-MW_dch-3" value="&lt;b&gt;Lucide Berthe&amp;nbsp;&lt;/b&gt;&lt;b&gt;Émilie MARTIAL &lt;/b&gt;née Dampierre" style="rounded=1;whiteSpace=wrap;html=1;fillColor=#f8cecc;strokeColor=#b85450;" parent="1" vertex="1">
          <mxGeometry x="1980" y="90" width="120" height="60" as="geometry" />
        </mxCell>
        <mxCell id="JoRg5VCLtStinsreE8dI-1" style="edgeStyle=orthogonalEdgeStyle;rounded=0;orthogonalLoop=1;jettySize=auto;html=1;exitX=1;exitY=0.5;exitDx=0;exitDy=0;strokeWidth=3;endArrow=none;endFill=0;" parent="1" source="JoRg5VCLtStinsreE8dI-2" target="JoRg5VCLtStinsreE8dI-5" edge="1">
          <mxGeometry relative="1" as="geometry" />
        </mxCell>
        <mxCell id="JoRg5VCLtStinsreE8dI-2" value="&lt;b&gt;Charlemagne Nicolas &lt;br&gt;MARTIAL&lt;/b&gt;" style="rounded=1;whiteSpace=wrap;html=1;fillColor=#dae8fc;strokeColor=#6c8ebf;" parent="1" vertex="1">
          <mxGeometry x="2220" y="10" width="120" height="60" as="geometry" />
        </mxCell>
        <mxCell id="JoRg5VCLtStinsreE8dI-3" style="edgeStyle=orthogonalEdgeStyle;rounded=0;orthogonalLoop=1;jettySize=auto;html=1;exitX=0;exitY=0.5;exitDx=0;exitDy=0;strokeWidth=3;endArrow=none;endFill=0;" parent="1" source="JoRg5VCLtStinsreE8dI-4" edge="1">
          <mxGeometry relative="1" as="geometry">
            <mxPoint x="2360" y="110" as="targetPoint" />
          </mxGeometry>
        </mxCell>
        <mxCell id="JoRg5VCLtStinsreE8dI-4" value="&lt;b&gt;Joséphine MARTIAL&amp;nbsp;&lt;/b&gt;née Clairice" style="rounded=1;whiteSpace=wrap;html=1;fillColor=#f8cecc;strokeColor=#b85450;" parent="1" vertex="1">
          <mxGeometry x="2380" y="10" width="120" height="60" as="geometry" />
        </mxCell>
        <mxCell id="JoRg5VCLtStinsreE8dI-135" style="edgeStyle=orthogonalEdgeStyle;rounded=0;orthogonalLoop=1;jettySize=auto;html=1;exitX=0;exitY=0.5;exitDx=0;exitDy=0;entryX=0.5;entryY=0;entryDx=0;entryDy=0;endArrow=none;endFill=0;strokeWidth=3;" parent="1" source="JoRg5VCLtStinsreE8dI-5" target="JoRg5VCLtStinsreE8dI-130" edge="1">
          <mxGeometry relative="1" as="geometry">
            <Array as="points">
              <mxPoint x="2200" y="120" />
              <mxPoint x="2200" y="180" />
              <mxPoint x="5094" y="180" />
            </Array>
          </mxGeometry>
        </mxCell>
        <mxCell id="JoRg5VCLtStinsreE8dI-5" value="&lt;b&gt;Saint-Jean Gervaise MARTIAL&lt;/b&gt;" style="rounded=1;whiteSpace=wrap;html=1;fillColor=#dae8fc;strokeColor=#6c8ebf;" parent="1" vertex="1">
          <mxGeometry x="2300" y="90" width="120" height="60" as="geometry" />
        </mxCell>
        <mxCell id="JoRg5VCLtStinsreE8dI-16" style="edgeStyle=orthogonalEdgeStyle;rounded=0;orthogonalLoop=1;jettySize=auto;html=1;exitX=1;exitY=0.5;exitDx=0;exitDy=0;entryX=0.5;entryY=0;entryDx=0;entryDy=0;strokeWidth=3;endArrow=none;endFill=0;" parent="1" source="JoRg5VCLtStinsreE8dI-6" target="JoRg5VCLtStinsreE8dI-7" edge="1">
          <mxGeometry relative="1" as="geometry" />
        </mxCell>
        <mxCell id="JoRg5VCLtStinsreE8dI-27" style="edgeStyle=orthogonalEdgeStyle;rounded=0;orthogonalLoop=1;jettySize=auto;html=1;exitX=0;exitY=0.5;exitDx=0;exitDy=0;endArrow=none;endFill=0;strokeWidth=3;" parent="1" source="JoRg5VCLtStinsreE8dI-6" target="JoRg5VCLtStinsreE8dI-14" edge="1">
          <mxGeometry relative="1" as="geometry">
            <Array as="points">
              <mxPoint x="-430" y="252" />
              <mxPoint x="-430" y="302" />
              <mxPoint x="-390" y="302" />
            </Array>
          </mxGeometry>
        </mxCell>
        <mxCell id="JoRg5VCLtStinsreE8dI-6" value="&lt;b&gt;Joël Michel &lt;/b&gt;&quot;Micher&quot;&lt;b&gt; MARTIAL&lt;/b&gt;" style="rounded=1;whiteSpace=wrap;html=1;fillColor=#dae8fc;strokeColor=#6c8ebf;" parent="1" vertex="1">
          <mxGeometry x="-390" y="222" width="120" height="60" as="geometry" />
        </mxCell>
        <mxCell id="4FW21X1AEk7qneLOafgt-4" style="edgeStyle=orthogonalEdgeStyle;shape=connector;rounded=0;orthogonalLoop=1;jettySize=auto;html=1;exitX=1;exitY=0.5;exitDx=0;exitDy=0;labelBackgroundColor=default;fontFamily=Helvetica;fontSize=11;fontColor=default;endArrow=none;endFill=0;strokeColor=default;strokeWidth=3;" parent="1" source="JoRg5VCLtStinsreE8dI-7" target="4FW21X1AEk7qneLOafgt-3" edge="1">
          <mxGeometry relative="1" as="geometry" />
        </mxCell>
        <mxCell id="JoRg5VCLtStinsreE8dI-7" value="&lt;b&gt;Laurence &lt;br&gt;MARTIAL&lt;/b&gt;" style="rounded=1;whiteSpace=wrap;html=1;fillColor=#f8cecc;strokeColor=#b85450;" parent="1" vertex="1">
          <mxGeometry x="-310" y="320" width="120" height="60" as="geometry" />
        </mxCell>
        <mxCell id="JoRg5VCLtStinsreE8dI-17" style="edgeStyle=orthogonalEdgeStyle;rounded=0;orthogonalLoop=1;jettySize=auto;html=1;exitX=0;exitY=0.5;exitDx=0;exitDy=0;strokeWidth=3;endArrow=none;endFill=0;" parent="1" source="JoRg5VCLtStinsreE8dI-8" edge="1">
          <mxGeometry relative="1" as="geometry">
            <mxPoint x="-250" y="320" as="targetPoint" />
          </mxGeometry>
        </mxCell>
        <mxCell id="JoRg5VCLtStinsreE8dI-8" value="&lt;b&gt;Grégoise Annie MARTIAL &lt;/b&gt;née William" style="rounded=1;whiteSpace=wrap;html=1;fillColor=#f8cecc;strokeColor=#b85450;" parent="1" vertex="1">
          <mxGeometry x="-230" y="222" width="120" height="60" as="geometry" />
        </mxCell>
        <mxCell id="JoRg5VCLtStinsreE8dI-26" style="edgeStyle=orthogonalEdgeStyle;rounded=0;orthogonalLoop=1;jettySize=auto;html=1;exitX=1;exitY=0.5;exitDx=0;exitDy=0;endArrow=none;endFill=0;strokeWidth=3;" parent="1" source="JoRg5VCLtStinsreE8dI-9" target="JoRg5VCLtStinsreE8dI-12" edge="1">
          <mxGeometry relative="1" as="geometry">
            <Array as="points">
              <mxPoint x="-430" y="252" />
              <mxPoint x="-430" y="302" />
              <mxPoint x="-530" y="302" />
            </Array>
          </mxGeometry>
        </mxCell>
        <mxCell id="JoRg5VCLtStinsreE8dI-9" value="&lt;b&gt;Maria&lt;br&gt;DINIZ&lt;br&gt;&lt;/b&gt;" style="rounded=1;whiteSpace=wrap;html=1;fillColor=#f8cecc;strokeColor=#b85450;" parent="1" vertex="1">
          <mxGeometry x="-590" y="222" width="120" height="60" as="geometry" />
        </mxCell>
        <mxCell id="JoRg5VCLtStinsreE8dI-11" value="&lt;b&gt;Joram&lt;br&gt;MARTIAL&lt;/b&gt;" style="rounded=1;whiteSpace=wrap;html=1;fillColor=#dae8fc;strokeColor=#6c8ebf;" parent="1" vertex="1">
          <mxGeometry x="480" y="320" width="120" height="60" as="geometry" />
        </mxCell>
        <mxCell id="JoRg5VCLtStinsreE8dI-12" value="&lt;b&gt;Yanco&lt;br&gt;&amp;nbsp;MARTIAL&lt;/b&gt;" style="rounded=1;whiteSpace=wrap;html=1;fillColor=#dae8fc;strokeColor=#6c8ebf;" parent="1" vertex="1">
          <mxGeometry x="-590" y="320" width="120" height="60" as="geometry" />
        </mxCell>
        <mxCell id="JoRg5VCLtStinsreE8dI-14" value="&lt;b&gt;Julie &lt;br&gt;MARTIAL&lt;/b&gt;" style="rounded=1;whiteSpace=wrap;html=1;fillColor=#f8cecc;strokeColor=#b85450;" parent="1" vertex="1">
          <mxGeometry x="-450" y="320" width="120" height="60" as="geometry" />
        </mxCell>
        <mxCell id="JoRg5VCLtStinsreE8dI-21" style="edgeStyle=orthogonalEdgeStyle;rounded=0;orthogonalLoop=1;jettySize=auto;html=1;exitX=1;exitY=0.5;exitDx=0;exitDy=0;entryX=0.5;entryY=0;entryDx=0;entryDy=0;strokeWidth=3;endArrow=none;endFill=0;" parent="1" source="JoRg5VCLtStinsreE8dI-22" target="JoRg5VCLtStinsreE8dI-23" edge="1">
          <mxGeometry relative="1" as="geometry" />
        </mxCell>
        <mxCell id="zzsRk16WgHVuCl2RyC7t-3" style="edgeStyle=orthogonalEdgeStyle;rounded=0;orthogonalLoop=1;jettySize=auto;html=1;exitX=0;exitY=0.5;exitDx=0;exitDy=0;strokeWidth=3;endArrow=none;endFill=0;" parent="1" source="JoRg5VCLtStinsreE8dI-22" target="zzsRk16WgHVuCl2RyC7t-2" edge="1">
          <mxGeometry relative="1" as="geometry">
            <Array as="points">
              <mxPoint x="220" y="250" />
              <mxPoint x="220" y="300" />
              <mxPoint x="90" y="300" />
            </Array>
          </mxGeometry>
        </mxCell>
        <mxCell id="JoRg5VCLtStinsreE8dI-22" value="&lt;b&gt;Jean-Philippe&amp;nbsp;&lt;/b&gt;&quot;Jean-Claude&quot;&lt;b&gt; &lt;br&gt;MARTIAL&lt;/b&gt;" style="rounded=1;whiteSpace=wrap;html=1;fillColor=#dae8fc;strokeColor=#6c8ebf;" parent="1" vertex="1">
          <mxGeometry x="320" y="220" width="120" height="60" as="geometry" />
        </mxCell>
        <mxCell id="JoRg5VCLtStinsreE8dI-29" style="edgeStyle=orthogonalEdgeStyle;shape=link;rounded=0;orthogonalLoop=1;jettySize=auto;html=1;exitX=0;exitY=0.5;exitDx=0;exitDy=0;entryX=1;entryY=0.5;entryDx=0;entryDy=0;" parent="1" source="JoRg5VCLtStinsreE8dI-23" target="JoRg5VCLtStinsreE8dI-28" edge="1">
          <mxGeometry relative="1" as="geometry" />
        </mxCell>
        <mxCell id="JoRg5VCLtStinsreE8dI-23" value="&lt;b&gt;Stéphanie&lt;br&gt;DAVID&lt;/b&gt; née Martial" style="rounded=1;whiteSpace=wrap;html=1;fillColor=#f8cecc;strokeColor=#b85450;" parent="1" vertex="1">
          <mxGeometry x="320" y="320" width="120" height="60" as="geometry" />
        </mxCell>
        <mxCell id="JoRg5VCLtStinsreE8dI-24" style="edgeStyle=orthogonalEdgeStyle;rounded=0;orthogonalLoop=1;jettySize=auto;html=1;exitX=0;exitY=0.5;exitDx=0;exitDy=0;strokeWidth=3;endArrow=none;endFill=0;" parent="1" source="JoRg5VCLtStinsreE8dI-25" target="JoRg5VCLtStinsreE8dI-11" edge="1">
          <mxGeometry relative="1" as="geometry">
            <mxPoint x="460" y="320" as="targetPoint" />
          </mxGeometry>
        </mxCell>
        <mxCell id="JoRg5VCLtStinsreE8dI-25" value="&lt;b&gt;Rémise &lt;br&gt;MARTIAL &lt;/b&gt;née Molia" style="rounded=1;whiteSpace=wrap;html=1;fillColor=#f8cecc;strokeColor=#b85450;" parent="1" vertex="1">
          <mxGeometry x="480" y="220" width="120" height="60" as="geometry" />
        </mxCell>
        <mxCell id="JoRg5VCLtStinsreE8dI-28" value="&lt;b&gt;Kim&lt;br&gt;DAVID&lt;/b&gt;" style="rounded=1;whiteSpace=wrap;html=1;fillColor=#dae8fc;strokeColor=#6c8ebf;" parent="1" vertex="1">
          <mxGeometry x="170" y="320" width="120" height="60" as="geometry" />
        </mxCell>
        <mxCell id="JoRg5VCLtStinsreE8dI-30" value="&lt;b&gt;Luc Raphaël&lt;br&gt;MARTIAL&lt;/b&gt;" style="rounded=1;whiteSpace=wrap;html=1;fillColor=#dae8fc;strokeColor=#6c8ebf;" parent="1" vertex="1">
          <mxGeometry x="622" y="220" width="120" height="60" as="geometry" />
        </mxCell>
        <mxCell id="JoRg5VCLtStinsreE8dI-53" style="edgeStyle=orthogonalEdgeStyle;rounded=0;orthogonalLoop=1;jettySize=auto;html=1;exitX=1;exitY=0.5;exitDx=0;exitDy=0;entryX=0.5;entryY=0;entryDx=0;entryDy=0;strokeWidth=3;endArrow=none;endFill=0;" parent="1" source="JoRg5VCLtStinsreE8dI-31" target="JoRg5VCLtStinsreE8dI-51" edge="1">
          <mxGeometry relative="1" as="geometry" />
        </mxCell>
        <mxCell id="JoRg5VCLtStinsreE8dI-31" value="&lt;b&gt;Audrey&lt;br&gt;LASSERRE&lt;/b&gt;" style="rounded=1;whiteSpace=wrap;html=1;fillColor=#f8cecc;strokeColor=#b85450;strokeWidth=1;" parent="1" vertex="1">
          <mxGeometry x="1230" y="322" width="120" height="60" as="geometry" />
        </mxCell>
        <mxCell id="JoRg5VCLtStinsreE8dI-32" style="edgeStyle=orthogonalEdgeStyle;rounded=0;orthogonalLoop=1;jettySize=auto;html=1;exitX=1;exitY=0.5;exitDx=0;exitDy=0;entryX=0.5;entryY=0;entryDx=0;entryDy=0;strokeWidth=3;endArrow=none;endFill=0;" parent="1" source="JoRg5VCLtStinsreE8dI-33" target="JoRg5VCLtStinsreE8dI-34" edge="1">
          <mxGeometry relative="1" as="geometry" />
        </mxCell>
        <mxCell id="JoRg5VCLtStinsreE8dI-165" style="edgeStyle=orthogonalEdgeStyle;rounded=0;orthogonalLoop=1;jettySize=auto;html=1;exitX=0;exitY=0.5;exitDx=0;exitDy=0;endArrow=none;endFill=0;strokeWidth=3;" parent="1" source="JoRg5VCLtStinsreE8dI-33" edge="1">
          <mxGeometry relative="1" as="geometry">
            <mxPoint x="900" y="300" as="targetPoint" />
            <Array as="points">
              <mxPoint x="960" y="250" />
              <mxPoint x="960" y="300" />
            </Array>
          </mxGeometry>
        </mxCell>
        <mxCell id="JoRg5VCLtStinsreE8dI-33" value="&lt;b&gt;Fontenel&lt;br&gt;LASSERRE&lt;/b&gt;" style="rounded=1;whiteSpace=wrap;html=1;fillColor=#dae8fc;strokeColor=#6c8ebf;strokeWidth=1;" parent="1" vertex="1">
          <mxGeometry x="1070" y="220" width="120" height="60" as="geometry" />
        </mxCell>
        <mxCell id="JoRg5VCLtStinsreE8dI-141" style="edgeStyle=orthogonalEdgeStyle;rounded=0;orthogonalLoop=1;jettySize=auto;html=1;exitX=0;exitY=0.5;exitDx=0;exitDy=0;strokeWidth=3;endArrow=none;endFill=0;" parent="1" source="JoRg5VCLtStinsreE8dI-34" target="JoRg5VCLtStinsreE8dI-140" edge="1">
          <mxGeometry relative="1" as="geometry">
            <Array as="points">
              <mxPoint x="1060" y="352" />
            </Array>
          </mxGeometry>
        </mxCell>
        <mxCell id="JoRg5VCLtStinsreE8dI-163" value="" style="edgeStyle=orthogonalEdgeStyle;rounded=0;orthogonalLoop=1;jettySize=auto;html=1;endArrow=none;endFill=0;strokeWidth=3;exitX=1;exitY=0.5;exitDx=0;exitDy=0;" parent="1" source="JoRg5VCLtStinsreE8dI-162" target="JoRg5VCLtStinsreE8dI-140" edge="1">
          <mxGeometry relative="1" as="geometry" />
        </mxCell>
        <mxCell id="JoRg5VCLtStinsreE8dI-34" value="&lt;b&gt;Gaëlle Rachel&amp;nbsp;&lt;/b&gt;&lt;b&gt;Émilie&lt;/b&gt;&lt;b&gt;&amp;nbsp;&lt;br&gt;LASSERRE&lt;/b&gt;" style="rounded=1;whiteSpace=wrap;html=1;fillColor=#f8cecc;strokeColor=#b85450;strokeWidth=1;" parent="1" vertex="1">
          <mxGeometry x="1070" y="322" width="120" height="60" as="geometry" />
        </mxCell>
        <mxCell id="JoRg5VCLtStinsreE8dI-35" style="edgeStyle=orthogonalEdgeStyle;rounded=0;orthogonalLoop=1;jettySize=auto;html=1;exitX=0;exitY=0.5;exitDx=0;exitDy=0;strokeWidth=3;endArrow=none;endFill=0;" parent="1" source="JoRg5VCLtStinsreE8dI-36" target="JoRg5VCLtStinsreE8dI-31" edge="1">
          <mxGeometry relative="1" as="geometry">
            <mxPoint x="1210" y="320" as="targetPoint" />
          </mxGeometry>
        </mxCell>
        <mxCell id="JoRg5VCLtStinsreE8dI-44" style="edgeStyle=orthogonalEdgeStyle;rounded=0;orthogonalLoop=1;jettySize=auto;html=1;exitX=1;exitY=0.5;exitDx=0;exitDy=0;entryX=0.5;entryY=0;entryDx=0;entryDy=0;strokeWidth=3;endArrow=none;endFill=0;" parent="1" source="JoRg5VCLtStinsreE8dI-36" target="JoRg5VCLtStinsreE8dI-43" edge="1">
          <mxGeometry relative="1" as="geometry">
            <mxPoint x="1420" y="250" as="sourcePoint" />
          </mxGeometry>
        </mxCell>
        <mxCell id="JoRg5VCLtStinsreE8dI-36" value="&lt;b&gt;Luciana Sylvestre&lt;br&gt;LASSERRE &lt;/b&gt;née Martial" style="rounded=1;whiteSpace=wrap;html=1;fillColor=#f8cecc;strokeColor=#b85450;strokeWidth=1;" parent="1" vertex="1">
          <mxGeometry x="1230" y="220" width="120" height="60" as="geometry" />
        </mxCell>
        <mxCell id="JoRg5VCLtStinsreE8dI-40" style="edgeStyle=orthogonalEdgeStyle;rounded=0;orthogonalLoop=1;jettySize=auto;html=1;exitX=1;exitY=0.5;exitDx=0;exitDy=0;strokeWidth=3;endArrow=none;endFill=0;" parent="1" source="JoRg5VCLtStinsreE8dI-37" target="JoRg5VCLtStinsreE8dI-38" edge="1">
          <mxGeometry relative="1" as="geometry">
            <Array as="points">
              <mxPoint x="960" y="250" />
              <mxPoint x="960" y="300" />
              <mxPoint x="760" y="300" />
            </Array>
          </mxGeometry>
        </mxCell>
        <mxCell id="JoRg5VCLtStinsreE8dI-37" value="&lt;b&gt;Rama&lt;br&gt;SIDIB&lt;/b&gt;&lt;b&gt;É&lt;/b&gt;&lt;b&gt;&lt;br&gt;&lt;/b&gt;" style="rounded=1;whiteSpace=wrap;html=1;fillColor=#f8cecc;strokeColor=#b85450;" parent="1" vertex="1">
          <mxGeometry x="760" y="220" width="120" height="60" as="geometry" />
        </mxCell>
        <mxCell id="zzsRk16WgHVuCl2RyC7t-15" style="edgeStyle=orthogonalEdgeStyle;shape=connector;rounded=0;orthogonalLoop=1;jettySize=auto;html=1;exitX=0.5;exitY=1;exitDx=0;exitDy=0;labelBackgroundColor=default;fontFamily=Helvetica;fontSize=11;fontColor=default;endArrow=none;endFill=0;strokeColor=default;strokeWidth=3;" parent="1" source="JoRg5VCLtStinsreE8dI-38" target="zzsRk16WgHVuCl2RyC7t-13" edge="1">
          <mxGeometry relative="1" as="geometry" />
        </mxCell>
        <mxCell id="JoRg5VCLtStinsreE8dI-38" value="&lt;b&gt;Pascal&lt;br&gt;LASSERRE&lt;/b&gt;" style="rounded=1;whiteSpace=wrap;html=1;fillColor=#dae8fc;strokeColor=#6c8ebf;strokeWidth=1;" parent="1" vertex="1">
          <mxGeometry x="700" y="320" width="120" height="60" as="geometry" />
        </mxCell>
        <mxCell id="JoRg5VCLtStinsreE8dI-45" style="edgeStyle=orthogonalEdgeStyle;rounded=0;orthogonalLoop=1;jettySize=auto;html=1;exitX=0;exitY=0.5;exitDx=0;exitDy=0;entryX=0.5;entryY=0;entryDx=0;entryDy=0;strokeWidth=3;endArrow=none;endFill=0;" parent="1" source="JoRg5VCLtStinsreE8dI-42" target="JoRg5VCLtStinsreE8dI-43" edge="1">
          <mxGeometry relative="1" as="geometry">
            <mxPoint x="1633" y="320" as="targetPoint" />
          </mxGeometry>
        </mxCell>
        <mxCell id="JoRg5VCLtStinsreE8dI-42" value="&lt;b&gt;Belgrade &lt;br&gt;GERVAIS&lt;/b&gt;" style="rounded=1;whiteSpace=wrap;html=1;fillColor=#dae8fc;strokeColor=#6c8ebf;" parent="1" vertex="1">
          <mxGeometry x="1653" y="220" width="120" height="60" as="geometry" />
        </mxCell>
        <mxCell id="JoRg5VCLtStinsreE8dI-48" style="edgeStyle=orthogonalEdgeStyle;rounded=0;orthogonalLoop=1;jettySize=auto;html=1;exitX=1;exitY=0.5;exitDx=0;exitDy=0;strokeWidth=3;endArrow=none;endFill=0;" parent="1" source="JoRg5VCLtStinsreE8dI-43" target="JoRg5VCLtStinsreE8dI-47" edge="1">
          <mxGeometry relative="1" as="geometry" />
        </mxCell>
        <mxCell id="JoRg5VCLtStinsreE8dI-43" value="&lt;b&gt;Gladys&lt;br&gt;ROCHE &lt;/b&gt;née Martial" style="rounded=1;whiteSpace=wrap;html=1;fillColor=#f8cecc;strokeColor=#b85450;" parent="1" vertex="1">
          <mxGeometry x="1553" y="320" width="120" height="60" as="geometry" />
        </mxCell>
        <mxCell id="JoRg5VCLtStinsreE8dI-49" style="edgeStyle=orthogonalEdgeStyle;rounded=0;orthogonalLoop=1;jettySize=auto;html=1;exitX=0;exitY=0.5;exitDx=0;exitDy=0;entryX=0.5;entryY=0;entryDx=0;entryDy=0;strokeWidth=3;endArrow=none;endFill=0;" parent="1" source="JoRg5VCLtStinsreE8dI-46" target="JoRg5VCLtStinsreE8dI-47" edge="1">
          <mxGeometry relative="1" as="geometry">
            <mxPoint x="1703" y="410" as="targetPoint" />
          </mxGeometry>
        </mxCell>
        <mxCell id="JoRg5VCLtStinsreE8dI-46" value="&lt;b&gt;Klébert&lt;br&gt;ROCHE&lt;br&gt;&lt;/b&gt;" style="rounded=1;whiteSpace=wrap;html=1;fillColor=#dae8fc;strokeColor=#6c8ebf;" parent="1" vertex="1">
          <mxGeometry x="1723" y="320" width="120" height="60" as="geometry" />
        </mxCell>
        <mxCell id="JoRg5VCLtStinsreE8dI-47" value="&lt;b&gt;Kléa&lt;br&gt;ROCHE&lt;/b&gt;" style="rounded=1;whiteSpace=wrap;html=1;fillColor=#f8cecc;strokeColor=#b85450;" parent="1" vertex="1">
          <mxGeometry x="1643" y="420" width="120" height="60" as="geometry" />
        </mxCell>
        <mxCell id="JoRg5VCLtStinsreE8dI-54" style="edgeStyle=orthogonalEdgeStyle;rounded=0;orthogonalLoop=1;jettySize=auto;html=1;exitX=0;exitY=0.5;exitDx=0;exitDy=0;strokeWidth=3;endArrow=none;endFill=0;" parent="1" source="JoRg5VCLtStinsreE8dI-50" target="JoRg5VCLtStinsreE8dI-52" edge="1">
          <mxGeometry relative="1" as="geometry" />
        </mxCell>
        <mxCell id="JoRg5VCLtStinsreE8dI-50" value="&lt;b&gt;Virgil&lt;br&gt;ZAMI&lt;br&gt;&lt;/b&gt;" style="rounded=1;whiteSpace=wrap;html=1;fillColor=#dae8fc;strokeColor=#6c8ebf;strokeWidth=1;" parent="1" vertex="1">
          <mxGeometry x="1390" y="322" width="120" height="60" as="geometry" />
        </mxCell>
        <mxCell id="JoRg5VCLtStinsreE8dI-51" value="&lt;b&gt;Mathys&lt;br&gt;ZAMI&lt;br&gt;&lt;/b&gt;" style="rounded=1;whiteSpace=wrap;html=1;fillColor=#dae8fc;strokeColor=#6c8ebf;strokeWidth=1;" parent="1" vertex="1">
          <mxGeometry x="1230" y="420" width="120" height="60" as="geometry" />
        </mxCell>
        <mxCell id="JoRg5VCLtStinsreE8dI-52" value="&lt;b&gt;Aria Jane Alicia&lt;br&gt;ZAMI&lt;br&gt;&lt;/b&gt;" style="rounded=1;whiteSpace=wrap;html=1;fillColor=#f8cecc;strokeColor=#b85450;fontColor=default;strokeWidth=1;" parent="1" vertex="1">
          <mxGeometry x="1386" y="420" width="120" height="60" as="geometry" />
        </mxCell>
        <mxCell id="JoRg5VCLtStinsreE8dI-55" value="&lt;b&gt;Mallory Anna Océane&lt;br&gt;PHEMIUS&lt;/b&gt;" style="rounded=1;whiteSpace=wrap;html=1;fillColor=#f8cecc;strokeColor=#b85450;" parent="1" vertex="1">
          <mxGeometry x="2136" y="320" width="120" height="60" as="geometry" />
        </mxCell>
        <mxCell id="JoRg5VCLtStinsreE8dI-56" style="edgeStyle=orthogonalEdgeStyle;rounded=0;orthogonalLoop=1;jettySize=auto;html=1;exitX=1;exitY=0.5;exitDx=0;exitDy=0;entryX=0.5;entryY=0;entryDx=0;entryDy=0;strokeWidth=3;endArrow=none;endFill=0;" parent="1" source="JoRg5VCLtStinsreE8dI-57" target="JoRg5VCLtStinsreE8dI-58" edge="1">
          <mxGeometry relative="1" as="geometry" />
        </mxCell>
        <mxCell id="JoRg5VCLtStinsreE8dI-57" value="&lt;b&gt;Roger Guy&lt;br&gt;PHEMIUS&lt;/b&gt;" style="rounded=1;whiteSpace=wrap;html=1;fillColor=#dae8fc;strokeColor=#6c8ebf;" parent="1" vertex="1">
          <mxGeometry x="1923" y="220" width="120" height="60" as="geometry" />
        </mxCell>
        <mxCell id="JoRg5VCLtStinsreE8dI-58" value="&lt;b&gt;Christopher Cédric François&lt;br&gt;PHEMIUS&lt;/b&gt;" style="rounded=1;whiteSpace=wrap;html=1;fillColor=#dae8fc;strokeColor=#6c8ebf;" parent="1" vertex="1">
          <mxGeometry x="1873" y="320" width="120" height="60" as="geometry" />
        </mxCell>
        <mxCell id="JoRg5VCLtStinsreE8dI-59" style="edgeStyle=orthogonalEdgeStyle;rounded=0;orthogonalLoop=1;jettySize=auto;html=1;exitX=0;exitY=0.5;exitDx=0;exitDy=0;strokeWidth=3;endArrow=none;endFill=0;" parent="1" source="JoRg5VCLtStinsreE8dI-60" target="JoRg5VCLtStinsreE8dI-55" edge="1">
          <mxGeometry relative="1" as="geometry">
            <mxPoint x="2063" y="320" as="targetPoint" />
          </mxGeometry>
        </mxCell>
        <mxCell id="JoRg5VCLtStinsreE8dI-62" style="edgeStyle=orthogonalEdgeStyle;rounded=0;orthogonalLoop=1;jettySize=auto;html=1;exitX=0;exitY=0.5;exitDx=0;exitDy=0;strokeWidth=3;endArrow=none;endFill=0;" parent="1" source="JoRg5VCLtStinsreE8dI-60" target="JoRg5VCLtStinsreE8dI-61" edge="1">
          <mxGeometry relative="1" as="geometry" />
        </mxCell>
        <mxCell id="JoRg5VCLtStinsreE8dI-60" value="&lt;b&gt;Marie-Antoinette Thérèse&lt;br&gt;PHEMIUS &lt;/b&gt;née Martial" style="rounded=1;whiteSpace=wrap;html=1;fillColor=#f8cecc;strokeColor=#b85450;" parent="1" vertex="1">
          <mxGeometry x="2083" y="220" width="120" height="60" as="geometry" />
        </mxCell>
        <mxCell id="JoRg5VCLtStinsreE8dI-61" value="&lt;b&gt;Kévin Jean René Roger&lt;br&gt;PHEMIUS&lt;/b&gt;" style="rounded=1;whiteSpace=wrap;html=1;fillColor=#dae8fc;strokeColor=#6c8ebf;" parent="1" vertex="1">
          <mxGeometry x="2003" y="320" width="120" height="60" as="geometry" />
        </mxCell>
        <mxCell id="JoRg5VCLtStinsreE8dI-80" style="edgeStyle=orthogonalEdgeStyle;rounded=0;orthogonalLoop=1;jettySize=auto;html=1;exitX=1;exitY=0.5;exitDx=0;exitDy=0;entryX=0.5;entryY=0;entryDx=0;entryDy=0;strokeWidth=3;endArrow=none;endFill=0;" parent="1" source="JoRg5VCLtStinsreE8dI-63" target="JoRg5VCLtStinsreE8dI-79" edge="1">
          <mxGeometry relative="1" as="geometry" />
        </mxCell>
        <mxCell id="JoRg5VCLtStinsreE8dI-63" value="&lt;b&gt;Dimitri Gary&lt;br&gt;ZABEAU&lt;/b&gt;" style="rounded=1;whiteSpace=wrap;html=1;fillColor=#dae8fc;strokeColor=#6c8ebf;" parent="1" vertex="1">
          <mxGeometry x="2614" y="320" width="120" height="60" as="geometry" />
        </mxCell>
        <mxCell id="JoRg5VCLtStinsreE8dI-64" style="edgeStyle=orthogonalEdgeStyle;rounded=0;orthogonalLoop=1;jettySize=auto;html=1;exitX=1;exitY=0.5;exitDx=0;exitDy=0;entryX=0.5;entryY=0;entryDx=0;entryDy=0;strokeWidth=3;endArrow=none;endFill=0;" parent="1" source="JoRg5VCLtStinsreE8dI-65" target="JoRg5VCLtStinsreE8dI-66" edge="1">
          <mxGeometry relative="1" as="geometry" />
        </mxCell>
        <mxCell id="JoRg5VCLtStinsreE8dI-65" value="&lt;b&gt;Alain Hilaire&lt;br&gt;ZABEAU&lt;/b&gt;" style="rounded=1;whiteSpace=wrap;html=1;fillColor=#dae8fc;strokeColor=#6c8ebf;" parent="1" vertex="1">
          <mxGeometry x="2454" y="220" width="120" height="60" as="geometry" />
        </mxCell>
        <mxCell id="JoRg5VCLtStinsreE8dI-77" style="edgeStyle=orthogonalEdgeStyle;rounded=0;orthogonalLoop=1;jettySize=auto;html=1;exitX=0;exitY=0.5;exitDx=0;exitDy=0;strokeWidth=3;endArrow=none;endFill=0;" parent="1" source="JoRg5VCLtStinsreE8dI-66" target="JoRg5VCLtStinsreE8dI-73" edge="1">
          <mxGeometry relative="1" as="geometry" />
        </mxCell>
        <mxCell id="JoRg5VCLtStinsreE8dI-66" value="&lt;b&gt;Jennifer Vanessa&lt;br&gt;ZABEAU&lt;/b&gt;" style="rounded=1;whiteSpace=wrap;html=1;fillColor=#f8cecc;strokeColor=#b85450;" parent="1" vertex="1">
          <mxGeometry x="2455" y="320" width="120" height="60" as="geometry" />
        </mxCell>
        <mxCell id="JoRg5VCLtStinsreE8dI-67" style="edgeStyle=orthogonalEdgeStyle;rounded=0;orthogonalLoop=1;jettySize=auto;html=1;exitX=0;exitY=0.5;exitDx=0;exitDy=0;strokeWidth=3;endArrow=none;endFill=0;" parent="1" source="JoRg5VCLtStinsreE8dI-69" target="JoRg5VCLtStinsreE8dI-63" edge="1">
          <mxGeometry relative="1" as="geometry">
            <mxPoint x="2594" y="320" as="targetPoint" />
          </mxGeometry>
        </mxCell>
        <mxCell id="JoRg5VCLtStinsreE8dI-69" value="&lt;b&gt;Nisida Appoline &lt;/b&gt;&quot;Nikita&quot;&lt;br&gt;&lt;b&gt;MARTIAL&lt;/b&gt;" style="rounded=1;whiteSpace=wrap;html=1;fillColor=#f8cecc;strokeColor=#b85450;" parent="1" vertex="1">
          <mxGeometry x="2614" y="220" width="120" height="60" as="geometry" />
        </mxCell>
        <mxCell id="JoRg5VCLtStinsreE8dI-76" style="edgeStyle=orthogonalEdgeStyle;rounded=0;orthogonalLoop=1;jettySize=auto;html=1;exitX=1;exitY=0.5;exitDx=0;exitDy=0;strokeWidth=3;endArrow=none;endFill=0;" parent="1" source="JoRg5VCLtStinsreE8dI-71" target="JoRg5VCLtStinsreE8dI-74" edge="1">
          <mxGeometry relative="1" as="geometry" />
        </mxCell>
        <mxCell id="JoRg5VCLtStinsreE8dI-71" value="&lt;b&gt;Fabrice Marcel&lt;br&gt;RANO&lt;/b&gt;" style="rounded=1;whiteSpace=wrap;html=1;fillColor=#dae8fc;strokeColor=#6c8ebf;" parent="1" vertex="1">
          <mxGeometry x="2295" y="320" width="120" height="60" as="geometry" />
        </mxCell>
        <mxCell id="JoRg5VCLtStinsreE8dI-73" value="&lt;b&gt;Divya Nikita Marie-Jo&lt;br&gt;RANO-ZABEAU&lt;/b&gt;" style="rounded=1;whiteSpace=wrap;html=1;fillColor=#f8cecc;strokeColor=#b85450;" parent="1" vertex="1">
          <mxGeometry x="2460" y="420" width="120" height="60" as="geometry" />
        </mxCell>
        <mxCell id="JoRg5VCLtStinsreE8dI-74" value="&lt;b&gt;Liam Dimitri Cédric&lt;br&gt;RANO-ZABEAU&lt;/b&gt;" style="rounded=1;whiteSpace=wrap;html=1;fillColor=#dae8fc;strokeColor=#6c8ebf;" parent="1" vertex="1">
          <mxGeometry x="2295" y="420" width="120" height="60" as="geometry" />
        </mxCell>
        <mxCell id="JoRg5VCLtStinsreE8dI-81" style="edgeStyle=orthogonalEdgeStyle;rounded=0;orthogonalLoop=1;jettySize=auto;html=1;exitX=0;exitY=0.5;exitDx=0;exitDy=0;strokeWidth=3;endArrow=none;endFill=0;" parent="1" source="JoRg5VCLtStinsreE8dI-78" edge="1">
          <mxGeometry relative="1" as="geometry">
            <mxPoint x="2760" y="420" as="targetPoint" />
          </mxGeometry>
        </mxCell>
        <mxCell id="JoRg5VCLtStinsreE8dI-78" value="&lt;b&gt;Tiphaine&lt;br&gt;M&lt;/b&gt;&lt;b&gt;É&lt;/b&gt;&lt;b&gt;NAGER&lt;/b&gt;" style="rounded=1;whiteSpace=wrap;html=1;fillColor=#f8cecc;strokeColor=#b85450;" parent="1" vertex="1">
          <mxGeometry x="2780" y="320" width="120" height="60" as="geometry" />
        </mxCell>
        <mxCell id="JoRg5VCLtStinsreE8dI-79" value="&lt;b&gt;Isaïah&lt;br&gt;ZABEAU-M&lt;/b&gt;&lt;b&gt;É&lt;/b&gt;&lt;b&gt;NAGER&lt;/b&gt;" style="rounded=1;whiteSpace=wrap;html=1;fillColor=#dae8fc;strokeColor=#6c8ebf;" parent="1" vertex="1">
          <mxGeometry x="2700" y="420" width="120" height="60" as="geometry" />
        </mxCell>
        <mxCell id="JoRg5VCLtStinsreE8dI-88" style="edgeStyle=orthogonalEdgeStyle;rounded=0;orthogonalLoop=1;jettySize=auto;html=1;exitX=0.5;exitY=1;exitDx=0;exitDy=0;entryX=0.5;entryY=0;entryDx=0;entryDy=0;strokeWidth=3;endArrow=none;endFill=0;" parent="1" source="JoRg5VCLtStinsreE8dI-82" target="JoRg5VCLtStinsreE8dI-86" edge="1">
          <mxGeometry relative="1" as="geometry" />
        </mxCell>
        <mxCell id="JoRg5VCLtStinsreE8dI-82" value="&lt;b&gt;Marc&lt;br&gt;ROULLAND&lt;/b&gt;" style="rounded=1;whiteSpace=wrap;html=1;fillColor=#dae8fc;strokeColor=#6c8ebf;" parent="1" vertex="1">
          <mxGeometry x="2930" y="220" width="120" height="60" as="geometry" />
        </mxCell>
        <mxCell id="JoRg5VCLtStinsreE8dI-90" style="edgeStyle=orthogonalEdgeStyle;rounded=0;orthogonalLoop=1;jettySize=auto;html=1;exitX=0.5;exitY=1;exitDx=0;exitDy=0;entryX=0.5;entryY=0;entryDx=0;entryDy=0;strokeWidth=3;endArrow=none;endFill=0;" parent="1" source="JoRg5VCLtStinsreE8dI-83" target="JoRg5VCLtStinsreE8dI-86" edge="1">
          <mxGeometry relative="1" as="geometry" />
        </mxCell>
        <mxCell id="JoRg5VCLtStinsreE8dI-91" style="edgeStyle=orthogonalEdgeStyle;rounded=0;orthogonalLoop=1;jettySize=auto;html=1;exitX=1;exitY=0.5;exitDx=0;exitDy=0;strokeWidth=3;endArrow=none;endFill=0;" parent="1" source="JoRg5VCLtStinsreE8dI-83" target="JoRg5VCLtStinsreE8dI-87" edge="1">
          <mxGeometry relative="1" as="geometry" />
        </mxCell>
        <mxCell id="JoRg5VCLtStinsreE8dI-83" value="&lt;b&gt;Gernita &lt;/b&gt;&quot;Marie-Hélène&quot;&lt;br&gt;&lt;b&gt;LEDEVIN &lt;/b&gt;née Martial" style="rounded=1;whiteSpace=wrap;html=1;fillColor=#f8cecc;strokeColor=#b85450;" parent="1" vertex="1">
          <mxGeometry x="3314" y="220" width="120" height="60" as="geometry" />
        </mxCell>
        <mxCell id="JoRg5VCLtStinsreE8dI-93" style="edgeStyle=orthogonalEdgeStyle;rounded=0;orthogonalLoop=1;jettySize=auto;html=1;exitX=1;exitY=0.5;exitDx=0;exitDy=0;entryX=0;entryY=0.5;entryDx=0;entryDy=0;shape=link;" parent="1" source="JoRg5VCLtStinsreE8dI-84" target="JoRg5VCLtStinsreE8dI-83" edge="1">
          <mxGeometry relative="1" as="geometry" />
        </mxCell>
        <mxCell id="JoRg5VCLtStinsreE8dI-84" value="&lt;b&gt;Didier&lt;br&gt;LEDEVIN&lt;/b&gt;" style="rounded=1;whiteSpace=wrap;html=1;fillColor=#dae8fc;strokeColor=#6c8ebf;" parent="1" vertex="1">
          <mxGeometry x="3146" y="220" width="120" height="60" as="geometry" />
        </mxCell>
        <mxCell id="JoRg5VCLtStinsreE8dI-92" style="edgeStyle=orthogonalEdgeStyle;rounded=0;orthogonalLoop=1;jettySize=auto;html=1;exitX=0;exitY=0.5;exitDx=0;exitDy=0;strokeWidth=3;endArrow=none;endFill=0;" parent="1" source="JoRg5VCLtStinsreE8dI-85" edge="1">
          <mxGeometry relative="1" as="geometry">
            <mxPoint x="3464" y="320" as="targetPoint" />
          </mxGeometry>
        </mxCell>
        <mxCell id="JoRg5VCLtStinsreE8dI-85" value="&lt;b&gt;Jean&lt;br&gt;SOPHIE&lt;/b&gt;" style="rounded=1;whiteSpace=wrap;html=1;fillColor=#dae8fc;strokeColor=#6c8ebf;" parent="1" vertex="1">
          <mxGeometry x="3484" y="220" width="120" height="60" as="geometry" />
        </mxCell>
        <mxCell id="JoRg5VCLtStinsreE8dI-99" style="edgeStyle=orthogonalEdgeStyle;rounded=0;orthogonalLoop=1;jettySize=auto;html=1;exitX=0;exitY=0.5;exitDx=0;exitDy=0;strokeWidth=3;endArrow=none;endFill=0;" parent="1" source="JoRg5VCLtStinsreE8dI-86" edge="1">
          <mxGeometry relative="1" as="geometry">
            <mxPoint x="3070" y="420" as="targetPoint" />
          </mxGeometry>
        </mxCell>
        <mxCell id="JoRg5VCLtStinsreE8dI-100" style="edgeStyle=orthogonalEdgeStyle;rounded=0;orthogonalLoop=1;jettySize=auto;html=1;exitX=1;exitY=0.5;exitDx=0;exitDy=0;strokeWidth=3;endArrow=none;endFill=0;" parent="1" source="JoRg5VCLtStinsreE8dI-86" target="JoRg5VCLtStinsreE8dI-97" edge="1">
          <mxGeometry relative="1" as="geometry" />
        </mxCell>
        <mxCell id="JoRg5VCLtStinsreE8dI-86" value="&lt;b&gt;Laetitia&lt;br&gt;ROULLAND&lt;/b&gt;" style="rounded=1;whiteSpace=wrap;html=1;fillColor=#f8cecc;strokeColor=#b85450;" parent="1" vertex="1">
          <mxGeometry x="3090" y="320" width="120" height="60" as="geometry" />
        </mxCell>
        <mxCell id="JoRg5VCLtStinsreE8dI-106" style="edgeStyle=orthogonalEdgeStyle;rounded=0;orthogonalLoop=1;jettySize=auto;html=1;exitX=1;exitY=0.5;exitDx=0;exitDy=0;strokeWidth=3;endArrow=none;endFill=0;" parent="1" source="JoRg5VCLtStinsreE8dI-87" target="JoRg5VCLtStinsreE8dI-104" edge="1">
          <mxGeometry relative="1" as="geometry" />
        </mxCell>
        <mxCell id="JoRg5VCLtStinsreE8dI-108" style="edgeStyle=orthogonalEdgeStyle;rounded=0;orthogonalLoop=1;jettySize=auto;html=1;exitX=1;exitY=0.5;exitDx=0;exitDy=0;strokeWidth=3;endArrow=none;endFill=0;" parent="1" source="JoRg5VCLtStinsreE8dI-87" target="JoRg5VCLtStinsreE8dI-105" edge="1">
          <mxGeometry relative="1" as="geometry" />
        </mxCell>
        <mxCell id="JoRg5VCLtStinsreE8dI-87" value="&lt;b&gt;Lindsay Cindy&lt;br&gt;JEANNOT &lt;/b&gt;née Sophie" style="rounded=1;whiteSpace=wrap;html=1;fillColor=#f8cecc;strokeColor=#b85450;" parent="1" vertex="1">
          <mxGeometry x="3404" y="320" width="120" height="60" as="geometry" />
        </mxCell>
        <mxCell id="JoRg5VCLtStinsreE8dI-98" style="edgeStyle=orthogonalEdgeStyle;rounded=0;orthogonalLoop=1;jettySize=auto;html=1;exitX=1;exitY=0.5;exitDx=0;exitDy=0;entryX=0.5;entryY=0;entryDx=0;entryDy=0;strokeWidth=3;endArrow=none;endFill=0;" parent="1" source="JoRg5VCLtStinsreE8dI-94" target="JoRg5VCLtStinsreE8dI-96" edge="1">
          <mxGeometry relative="1" as="geometry" />
        </mxCell>
        <mxCell id="JoRg5VCLtStinsreE8dI-94" value="&lt;b&gt;Gäetan&lt;br&gt;BADR&lt;/b&gt;&lt;b&gt;É&lt;/b&gt;" style="rounded=1;whiteSpace=wrap;html=1;fillColor=#dae8fc;strokeColor=#6c8ebf;" parent="1" vertex="1">
          <mxGeometry x="2930" y="320" width="120" height="60" as="geometry" />
        </mxCell>
        <mxCell id="JoRg5VCLtStinsreE8dI-101" style="edgeStyle=orthogonalEdgeStyle;rounded=0;orthogonalLoop=1;jettySize=auto;html=1;exitX=0;exitY=0.5;exitDx=0;exitDy=0;strokeWidth=3;endArrow=none;endFill=0;" parent="1" source="JoRg5VCLtStinsreE8dI-95" edge="1">
          <mxGeometry relative="1" as="geometry">
            <mxPoint x="3230" y="420" as="targetPoint" />
          </mxGeometry>
        </mxCell>
        <mxCell id="JoRg5VCLtStinsreE8dI-95" value="&lt;b&gt;Jean-Phillippe&lt;/b&gt;&lt;br&gt;&lt;b&gt;DEBRAY&lt;/b&gt;" style="rounded=1;whiteSpace=wrap;html=1;fillColor=#dae8fc;strokeColor=#6c8ebf;" parent="1" vertex="1">
          <mxGeometry x="3250" y="320" width="120" height="60" as="geometry" />
        </mxCell>
        <mxCell id="JoRg5VCLtStinsreE8dI-96" value="&lt;b&gt;Cassandra&lt;br&gt;&lt;/b&gt;&lt;b&gt;BADR&lt;/b&gt;&lt;b&gt;É-&lt;/b&gt;&lt;b&gt;ROULLAND&lt;/b&gt;" style="rounded=1;whiteSpace=wrap;html=1;fillColor=#f8cecc;strokeColor=#b85450;" parent="1" vertex="1">
          <mxGeometry x="3010" y="420" width="120" height="60" as="geometry" />
        </mxCell>
        <mxCell id="JoRg5VCLtStinsreE8dI-97" value="&lt;b&gt;Léana&lt;br&gt;&lt;/b&gt;&lt;b&gt;DEBRAY-&lt;/b&gt;&lt;b&gt;ROULLAND&lt;/b&gt;" style="rounded=1;whiteSpace=wrap;html=1;fillColor=#f8cecc;strokeColor=#b85450;" parent="1" vertex="1">
          <mxGeometry x="3170" y="420" width="120" height="60" as="geometry" />
        </mxCell>
        <mxCell id="JoRg5VCLtStinsreE8dI-107" style="edgeStyle=orthogonalEdgeStyle;rounded=0;orthogonalLoop=1;jettySize=auto;html=1;exitX=0;exitY=0.5;exitDx=0;exitDy=0;strokeWidth=3;endArrow=none;endFill=0;" parent="1" source="JoRg5VCLtStinsreE8dI-102" target="JoRg5VCLtStinsreE8dI-103" edge="1">
          <mxGeometry relative="1" as="geometry" />
        </mxCell>
        <mxCell id="JoRg5VCLtStinsreE8dI-102" value="&lt;b&gt;Laury&lt;br&gt;JEANNOT&lt;/b&gt;" style="rounded=1;whiteSpace=wrap;html=1;fillColor=#dae8fc;strokeColor=#6c8ebf;" parent="1" vertex="1">
          <mxGeometry x="3564" y="320" width="120" height="60" as="geometry" />
        </mxCell>
        <mxCell id="JoRg5VCLtStinsreE8dI-103" value="&lt;b&gt;Achille Didier&lt;br&gt;JEANNOT&lt;/b&gt;" style="rounded=1;whiteSpace=wrap;html=1;fillColor=#dae8fc;strokeColor=#6c8ebf;" parent="1" vertex="1">
          <mxGeometry x="3608" y="420" width="120" height="60" as="geometry" />
        </mxCell>
        <mxCell id="JoRg5VCLtStinsreE8dI-104" value="&lt;b&gt;Arsène Claude&lt;br&gt;JEANNOT&lt;/b&gt;" style="rounded=1;whiteSpace=wrap;html=1;fillColor=#dae8fc;strokeColor=#6c8ebf;" parent="1" vertex="1">
          <mxGeometry x="3360" y="420" width="120" height="60" as="geometry" />
        </mxCell>
        <mxCell id="JoRg5VCLtStinsreE8dI-105" value="&lt;b&gt;Lysandre Laurent&lt;br&gt;JEANNOT&lt;/b&gt;" style="rounded=1;whiteSpace=wrap;html=1;fillColor=#dae8fc;strokeColor=#6c8ebf;" parent="1" vertex="1">
          <mxGeometry x="3484" y="420" width="120" height="60" as="geometry" />
        </mxCell>
        <mxCell id="JoRg5VCLtStinsreE8dI-109" value="&lt;b&gt;Davis Jordan&lt;br&gt;JACKSON&lt;/b&gt;" style="rounded=1;whiteSpace=wrap;html=1;fillColor=#dae8fc;strokeColor=#6c8ebf;" parent="1" vertex="1">
          <mxGeometry x="3906" y="320" width="120" height="60" as="geometry" />
        </mxCell>
        <mxCell id="JoRg5VCLtStinsreE8dI-110" style="edgeStyle=orthogonalEdgeStyle;rounded=0;orthogonalLoop=1;jettySize=auto;html=1;exitX=1;exitY=0.5;exitDx=0;exitDy=0;entryX=0.5;entryY=0;entryDx=0;entryDy=0;strokeWidth=3;endArrow=none;endFill=0;" parent="1" source="JoRg5VCLtStinsreE8dI-111" target="JoRg5VCLtStinsreE8dI-112" edge="1">
          <mxGeometry relative="1" as="geometry" />
        </mxCell>
        <mxCell id="JoRg5VCLtStinsreE8dI-111" value="&lt;b&gt;Jean-Claude&lt;br&gt;JACKSON&lt;/b&gt;" style="rounded=1;whiteSpace=wrap;html=1;fillColor=#dae8fc;strokeColor=#6c8ebf;" parent="1" vertex="1">
          <mxGeometry x="3746" y="220" width="120" height="60" as="geometry" />
        </mxCell>
        <mxCell id="JoRg5VCLtStinsreE8dI-112" value="&lt;b&gt;Shannon Deborah&lt;br&gt;JACKSON&lt;/b&gt;" style="rounded=1;whiteSpace=wrap;html=1;fillColor=#f8cecc;strokeColor=#b85450;" parent="1" vertex="1">
          <mxGeometry x="3747" y="320" width="120" height="60" as="geometry" />
        </mxCell>
        <mxCell id="JoRg5VCLtStinsreE8dI-113" style="edgeStyle=orthogonalEdgeStyle;rounded=0;orthogonalLoop=1;jettySize=auto;html=1;exitX=0;exitY=0.5;exitDx=0;exitDy=0;strokeWidth=3;endArrow=none;endFill=0;" parent="1" source="JoRg5VCLtStinsreE8dI-114" target="JoRg5VCLtStinsreE8dI-109" edge="1">
          <mxGeometry relative="1" as="geometry">
            <mxPoint x="3886" y="320" as="targetPoint" />
          </mxGeometry>
        </mxCell>
        <mxCell id="JoRg5VCLtStinsreE8dI-114" value="&lt;b&gt;Huguette Jonas&lt;/b&gt;&lt;br&gt;&lt;b&gt;JACKSON &lt;/b&gt;née Martial" style="rounded=1;whiteSpace=wrap;html=1;fillColor=#f8cecc;strokeColor=#b85450;" parent="1" vertex="1">
          <mxGeometry x="3906" y="220" width="120" height="60" as="geometry" />
        </mxCell>
        <mxCell id="JoRg5VCLtStinsreE8dI-117" style="edgeStyle=orthogonalEdgeStyle;shape=link;rounded=0;orthogonalLoop=1;jettySize=auto;html=1;exitX=1;exitY=0.5;exitDx=0;exitDy=0;entryX=0;entryY=0.5;entryDx=0;entryDy=0;" parent="1" source="JoRg5VCLtStinsreE8dI-115" target="JoRg5VCLtStinsreE8dI-116" edge="1">
          <mxGeometry relative="1" as="geometry" />
        </mxCell>
        <mxCell id="JoRg5VCLtStinsreE8dI-115" value="&lt;b&gt;Christian Bruno&lt;br&gt;MARTIAL&lt;/b&gt;" style="rounded=1;whiteSpace=wrap;html=1;fillColor=#dae8fc;strokeColor=#6c8ebf;" parent="1" vertex="1">
          <mxGeometry x="4540" y="220" width="120" height="60" as="geometry" />
        </mxCell>
        <mxCell id="JoRg5VCLtStinsreE8dI-116" value="&lt;b&gt;Peggy&lt;br&gt;MARTIAL&lt;/b&gt;" style="rounded=1;whiteSpace=wrap;html=1;fillColor=#f8cecc;strokeColor=#b85450;" parent="1" vertex="1">
          <mxGeometry x="4700" y="220" width="120" height="60" as="geometry" />
        </mxCell>
        <mxCell id="JoRg5VCLtStinsreE8dI-118" value="&lt;b&gt;Yann Michel&lt;br&gt;MARTIAL&lt;/b&gt;" style="rounded=1;whiteSpace=wrap;html=1;fillColor=#dae8fc;strokeColor=#6c8ebf;" parent="1" vertex="1">
          <mxGeometry x="4150" y="320" width="120" height="60" as="geometry" />
        </mxCell>
        <mxCell id="JoRg5VCLtStinsreE8dI-124" style="edgeStyle=orthogonalEdgeStyle;rounded=0;orthogonalLoop=1;jettySize=auto;html=1;exitX=1;exitY=0.5;exitDx=0;exitDy=0;strokeWidth=3;endArrow=none;endFill=0;" parent="1" source="JoRg5VCLtStinsreE8dI-120" target="JoRg5VCLtStinsreE8dI-118" edge="1">
          <mxGeometry relative="1" as="geometry" />
        </mxCell>
        <mxCell id="JoRg5VCLtStinsreE8dI-120" value="&lt;b&gt;Willy&lt;br&gt;Z&lt;/b&gt;&lt;span style=&quot;color: rgba(0 , 0 , 0 , 0) ; font-family: monospace ; font-size: 0px&quot;&gt;%3CmxGraphModel%3E%3Croot%3E%3CmxCell%20id%3D%220%22%2F%3E%3CmxCell%20id%3D%221%22%20parent%3D%220%22%2F%3E%3CmxCell%20id%3D%222%22%20value%3D%22%26lt%3Bb%26gt%3BPascal%26lt%3Bbr%26gt%3BLASSERRE%26lt%3B%2Fb%26gt%3B%22%20style%3D%22rounded%3D1%3BwhiteSpace%3Dwrap%3Bhtml%3D1%3BfillColor%3D%23dae8fc%3BstrokeColor%3D%236c8ebf%3BstrokeWidth%3D1%3B%22%20vertex%3D%221%22%20parent%3D%221%22%3E%3CmxGeometry%20x%3D%22830%22%20y%3D%22322%22%20width%3D%22120%22%20height%3D%2260%22%20as%3D%22geometry%22%2F%3E%3C%2FmxCell%3E%3C%2Froot%3E%3C%2FmxGraphModel%3E&lt;/span&gt;&lt;b&gt;ÉBI&lt;/b&gt;" style="rounded=1;whiteSpace=wrap;html=1;fillColor=#dae8fc;strokeColor=#6c8ebf;" parent="1" vertex="1">
          <mxGeometry x="4070" y="220" width="120" height="60" as="geometry" />
        </mxCell>
        <mxCell id="JoRg5VCLtStinsreE8dI-122" style="edgeStyle=orthogonalEdgeStyle;rounded=0;orthogonalLoop=1;jettySize=auto;html=1;exitX=0;exitY=0.5;exitDx=0;exitDy=0;strokeWidth=3;endArrow=none;endFill=0;" parent="1" source="JoRg5VCLtStinsreE8dI-123" target="JoRg5VCLtStinsreE8dI-118" edge="1">
          <mxGeometry relative="1" as="geometry">
            <mxPoint x="4210" y="320" as="targetPoint" />
          </mxGeometry>
        </mxCell>
        <mxCell id="FLbfCy0wqAGYfXmiJbKD-2" style="edgeStyle=orthogonalEdgeStyle;rounded=0;orthogonalLoop=1;jettySize=auto;html=1;exitX=1;exitY=0.5;exitDx=0;exitDy=0;shape=link;" edge="1" parent="1" source="JoRg5VCLtStinsreE8dI-123" target="FLbfCy0wqAGYfXmiJbKD-1">
          <mxGeometry relative="1" as="geometry" />
        </mxCell>
        <mxCell id="JoRg5VCLtStinsreE8dI-123" value="&lt;b&gt;Sylviane Paulette&lt;br&gt;MARTIAL&lt;/b&gt;" style="rounded=1;whiteSpace=wrap;html=1;fillColor=#f8cecc;strokeColor=#b85450;" parent="1" vertex="1">
          <mxGeometry x="4230" y="220" width="120" height="60" as="geometry" />
        </mxCell>
        <mxCell id="JoRg5VCLtStinsreE8dI-125" value="&lt;b&gt;Laura Iria&lt;br&gt;SOUSA&lt;/b&gt;" style="rounded=1;whiteSpace=wrap;html=1;fillColor=#f8cecc;strokeColor=#b85450;" parent="1" vertex="1">
          <mxGeometry x="5034" y="320" width="120" height="60" as="geometry" />
        </mxCell>
        <mxCell id="JoRg5VCLtStinsreE8dI-126" style="edgeStyle=orthogonalEdgeStyle;rounded=0;orthogonalLoop=1;jettySize=auto;html=1;exitX=1;exitY=0.5;exitDx=0;exitDy=0;entryX=0.5;entryY=0;entryDx=0;entryDy=0;strokeWidth=3;endArrow=none;endFill=0;" parent="1" source="JoRg5VCLtStinsreE8dI-127" target="JoRg5VCLtStinsreE8dI-128" edge="1">
          <mxGeometry relative="1" as="geometry" />
        </mxCell>
        <mxCell id="JoRg5VCLtStinsreE8dI-127" value="&lt;b&gt;Arthur&lt;br&gt;SOUSA&lt;/b&gt;" style="rounded=1;whiteSpace=wrap;html=1;fillColor=#dae8fc;strokeColor=#6c8ebf;" parent="1" vertex="1">
          <mxGeometry x="4874" y="220" width="120" height="60" as="geometry" />
        </mxCell>
        <mxCell id="JoRg5VCLtStinsreE8dI-128" value="&lt;b&gt;Carla Marie&lt;br&gt;NAIGRE &lt;/b&gt;née Sousa" style="rounded=1;whiteSpace=wrap;html=1;fillColor=#f8cecc;strokeColor=#b85450;" parent="1" vertex="1">
          <mxGeometry x="4875" y="320" width="120" height="60" as="geometry" />
        </mxCell>
        <mxCell id="JoRg5VCLtStinsreE8dI-129" style="edgeStyle=orthogonalEdgeStyle;rounded=0;orthogonalLoop=1;jettySize=auto;html=1;exitX=0;exitY=0.5;exitDx=0;exitDy=0;strokeWidth=3;endArrow=none;endFill=0;" parent="1" source="JoRg5VCLtStinsreE8dI-130" target="JoRg5VCLtStinsreE8dI-125" edge="1">
          <mxGeometry relative="1" as="geometry">
            <mxPoint x="5014" y="320" as="targetPoint" />
          </mxGeometry>
        </mxCell>
        <mxCell id="JoRg5VCLtStinsreE8dI-130" value="&lt;b&gt;Jacqueline Rachel&lt;/b&gt;&lt;br&gt;&lt;b&gt;SOUSA &lt;/b&gt;née Martial" style="rounded=1;whiteSpace=wrap;html=1;fillColor=#f8cecc;strokeColor=#b85450;" parent="1" vertex="1">
          <mxGeometry x="5034" y="220" width="120" height="60" as="geometry" />
        </mxCell>
        <mxCell id="JoRg5VCLtStinsreE8dI-132" style="edgeStyle=orthogonalEdgeStyle;shape=link;rounded=0;orthogonalLoop=1;jettySize=auto;html=1;exitX=1;exitY=0.5;exitDx=0;exitDy=0;entryX=0;entryY=0.5;entryDx=0;entryDy=0;" parent="1" source="JoRg5VCLtStinsreE8dI-131" target="JoRg5VCLtStinsreE8dI-128" edge="1">
          <mxGeometry relative="1" as="geometry" />
        </mxCell>
        <mxCell id="JoRg5VCLtStinsreE8dI-131" value="&lt;b&gt;Daryl&lt;br&gt;NAIGRE&lt;/b&gt;" style="rounded=1;whiteSpace=wrap;html=1;fillColor=#dae8fc;strokeColor=#6c8ebf;" parent="1" vertex="1">
          <mxGeometry x="4704" y="320" width="120" height="60" as="geometry" />
        </mxCell>
        <mxCell id="JoRg5VCLtStinsreE8dI-138" value="" style="endArrow=none;html=1;rounded=0;entryX=0.5;entryY=0;entryDx=0;entryDy=0;endFill=0;strokeWidth=3;" parent="1" target="JoRg5VCLtStinsreE8dI-22" edge="1">
          <mxGeometry width="50" height="50" relative="1" as="geometry">
            <mxPoint x="380" y="180" as="sourcePoint" />
            <mxPoint x="360" y="160" as="targetPoint" />
          </mxGeometry>
        </mxCell>
        <mxCell id="JoRg5VCLtStinsreE8dI-140" value="&lt;b&gt;Marley Yanis Louis&lt;br&gt;LASSERRE&lt;/b&gt;" style="rounded=1;whiteSpace=wrap;html=1;fillColor=#dae8fc;strokeColor=#6c8ebf;strokeWidth=1;" parent="1" vertex="1">
          <mxGeometry x="1000" y="420" width="120" height="60" as="geometry" />
        </mxCell>
        <mxCell id="JoRg5VCLtStinsreE8dI-142" value="" style="endArrow=none;html=1;rounded=0;entryX=0.5;entryY=0;entryDx=0;entryDy=0;endFill=0;strokeWidth=3;" parent="1" target="JoRg5VCLtStinsreE8dI-30" edge="1">
          <mxGeometry width="50" height="50" relative="1" as="geometry">
            <mxPoint x="682" y="180" as="sourcePoint" />
            <mxPoint x="390" y="230" as="targetPoint" />
          </mxGeometry>
        </mxCell>
        <mxCell id="JoRg5VCLtStinsreE8dI-144" value="" style="endArrow=none;html=1;rounded=0;entryX=0.5;entryY=0;entryDx=0;entryDy=0;strokeWidth=3;endFill=0;" parent="1" edge="1">
          <mxGeometry width="50" height="50" relative="1" as="geometry">
            <mxPoint x="1289.5" y="180" as="sourcePoint" />
            <mxPoint x="1289.5" y="220" as="targetPoint" />
          </mxGeometry>
        </mxCell>
        <mxCell id="JoRg5VCLtStinsreE8dI-146" value="" style="endArrow=none;html=1;rounded=0;entryX=0.5;entryY=0;entryDx=0;entryDy=0;strokeWidth=3;endFill=0;" parent="1" target="JoRg5VCLtStinsreE8dI-60" edge="1">
          <mxGeometry width="50" height="50" relative="1" as="geometry">
            <mxPoint x="2143" y="180" as="sourcePoint" />
            <mxPoint x="2579.999951171875" y="200" as="targetPoint" />
          </mxGeometry>
        </mxCell>
        <mxCell id="JoRg5VCLtStinsreE8dI-147" value="" style="endArrow=none;html=1;rounded=0;entryX=0.5;entryY=0;entryDx=0;entryDy=0;strokeWidth=3;endFill=0;" parent="1" target="JoRg5VCLtStinsreE8dI-69" edge="1">
          <mxGeometry width="50" height="50" relative="1" as="geometry">
            <mxPoint x="2674" y="180" as="sourcePoint" />
            <mxPoint x="2153" y="230" as="targetPoint" />
          </mxGeometry>
        </mxCell>
        <mxCell id="JoRg5VCLtStinsreE8dI-148" value="" style="endArrow=none;html=1;rounded=0;entryX=0.5;entryY=0;entryDx=0;entryDy=0;endFill=0;strokeWidth=3;" parent="1" target="JoRg5VCLtStinsreE8dI-83" edge="1">
          <mxGeometry width="50" height="50" relative="1" as="geometry">
            <mxPoint x="3374" y="180" as="sourcePoint" />
            <mxPoint x="3150" y="350" as="targetPoint" />
          </mxGeometry>
        </mxCell>
        <mxCell id="JoRg5VCLtStinsreE8dI-149" value="" style="endArrow=none;html=1;rounded=0;entryX=0.5;entryY=0;entryDx=0;entryDy=0;strokeWidth=3;endFill=0;" parent="1" target="JoRg5VCLtStinsreE8dI-114" edge="1">
          <mxGeometry width="50" height="50" relative="1" as="geometry">
            <mxPoint x="3966" y="180" as="sourcePoint" />
            <mxPoint x="3976" y="350" as="targetPoint" />
          </mxGeometry>
        </mxCell>
        <mxCell id="JoRg5VCLtStinsreE8dI-150" value="" style="endArrow=none;html=1;rounded=0;entryX=0.5;entryY=0;entryDx=0;entryDy=0;strokeWidth=3;endFill=0;" parent="1" target="JoRg5VCLtStinsreE8dI-123" edge="1">
          <mxGeometry width="50" height="50" relative="1" as="geometry">
            <mxPoint x="4290" y="180" as="sourcePoint" />
            <mxPoint x="4250" y="350" as="targetPoint" />
          </mxGeometry>
        </mxCell>
        <mxCell id="JoRg5VCLtStinsreE8dI-151" value="" style="endArrow=none;html=1;rounded=0;entryX=0.5;entryY=0;entryDx=0;entryDy=0;strokeWidth=3;endFill=0;" parent="1" target="JoRg5VCLtStinsreE8dI-115" edge="1">
          <mxGeometry width="50" height="50" relative="1" as="geometry">
            <mxPoint x="4600" y="180" as="sourcePoint" />
            <mxPoint x="4800" y="350" as="targetPoint" />
          </mxGeometry>
        </mxCell>
        <mxCell id="JoRg5VCLtStinsreE8dI-153" value="&lt;b&gt;✟&lt;/b&gt;" style="text;whiteSpace=wrap;html=1;align=center;" parent="1" vertex="1">
          <mxGeometry x="-129" y="259" width="20" height="10" as="geometry" />
        </mxCell>
        <mxCell id="JoRg5VCLtStinsreE8dI-154" value="&lt;b&gt;✟&lt;/b&gt;" style="text;whiteSpace=wrap;html=1;align=center;" parent="1" vertex="1">
          <mxGeometry x="2001" y="48" width="20" height="22" as="geometry" />
        </mxCell>
        <mxCell id="JoRg5VCLtStinsreE8dI-155" value="&lt;b&gt;✟&lt;/b&gt;" style="text;whiteSpace=wrap;html=1;align=center;" parent="1" vertex="1">
          <mxGeometry x="2160" y="48" width="20" height="22" as="geometry" />
        </mxCell>
        <mxCell id="JoRg5VCLtStinsreE8dI-156" value="&lt;b&gt;✟&lt;/b&gt;" style="text;whiteSpace=wrap;html=1;align=center;" parent="1" vertex="1">
          <mxGeometry x="2320" y="48" width="20" height="22" as="geometry" />
        </mxCell>
        <mxCell id="JoRg5VCLtStinsreE8dI-157" value="&lt;b&gt;✟&lt;/b&gt;" style="text;whiteSpace=wrap;html=1;align=center;" parent="1" vertex="1">
          <mxGeometry x="2480" y="48" width="20" height="22" as="geometry" />
        </mxCell>
        <mxCell id="JoRg5VCLtStinsreE8dI-158" value="&lt;b&gt;✟&lt;/b&gt;" style="text;whiteSpace=wrap;html=1;align=center;" parent="1" vertex="1">
          <mxGeometry x="2400" y="128" width="20" height="22" as="geometry" />
        </mxCell>
        <mxCell id="JoRg5VCLtStinsreE8dI-159" value="&lt;b&gt;✟&lt;/b&gt;" style="text;whiteSpace=wrap;html=1;align=center;" parent="1" vertex="1">
          <mxGeometry x="722" y="258" width="20" height="22" as="geometry" />
        </mxCell>
        <mxCell id="JoRg5VCLtStinsreE8dI-162" value="&lt;b&gt;Daniel&lt;br&gt;CLOMBE&lt;/b&gt;" style="rounded=1;whiteSpace=wrap;html=1;fillColor=#dae8fc;strokeColor=#6c8ebf;strokeWidth=1;" parent="1" vertex="1">
          <mxGeometry x="920" y="322" width="120" height="60" as="geometry" />
        </mxCell>
        <mxCell id="zzsRk16WgHVuCl2RyC7t-4" style="edgeStyle=orthogonalEdgeStyle;rounded=0;orthogonalLoop=1;jettySize=auto;html=1;exitX=1;exitY=0.5;exitDx=0;exitDy=0;entryX=0.5;entryY=0;entryDx=0;entryDy=0;strokeWidth=3;endArrow=none;endFill=0;" parent="1" source="zzsRk16WgHVuCl2RyC7t-1" target="zzsRk16WgHVuCl2RyC7t-2" edge="1">
          <mxGeometry relative="1" as="geometry">
            <Array as="points">
              <mxPoint x="120" y="250" />
              <mxPoint x="220" y="250" />
              <mxPoint x="220" y="300" />
              <mxPoint x="90" y="300" />
              <mxPoint x="90" y="320" />
            </Array>
          </mxGeometry>
        </mxCell>
        <mxCell id="zzsRk16WgHVuCl2RyC7t-1" value="&lt;b&gt;Alidia &lt;br&gt;???&lt;/b&gt;" style="rounded=1;whiteSpace=wrap;html=1;fillColor=#f8cecc;strokeColor=#b85450;" parent="1" vertex="1">
          <mxGeometry y="222" width="120" height="60" as="geometry" />
        </mxCell>
        <mxCell id="zzsRk16WgHVuCl2RyC7t-2" value="&lt;b&gt;Mickaël&lt;br&gt;MARTIAL&lt;/b&gt;" style="rounded=1;whiteSpace=wrap;html=1;fillColor=#dae8fc;strokeColor=#6c8ebf;" parent="1" vertex="1">
          <mxGeometry x="28" y="320" width="120" height="60" as="geometry" />
        </mxCell>
        <mxCell id="zzsRk16WgHVuCl2RyC7t-16" style="edgeStyle=orthogonalEdgeStyle;shape=connector;rounded=0;orthogonalLoop=1;jettySize=auto;html=1;exitX=0.5;exitY=0;exitDx=0;exitDy=0;entryX=0.5;entryY=1;entryDx=0;entryDy=0;labelBackgroundColor=default;fontFamily=Helvetica;fontSize=11;fontColor=default;endArrow=none;endFill=0;strokeColor=default;strokeWidth=3;" parent="1" source="zzsRk16WgHVuCl2RyC7t-12" target="JoRg5VCLtStinsreE8dI-38" edge="1">
          <mxGeometry relative="1" as="geometry" />
        </mxCell>
        <mxCell id="zzsRk16WgHVuCl2RyC7t-12" value="&lt;b&gt;Chamina&lt;br&gt;LASSERRE&lt;/b&gt;" style="rounded=1;whiteSpace=wrap;html=1;fillColor=#f8cecc;strokeColor=#b85450;" parent="1" vertex="1">
          <mxGeometry x="833" y="420" width="120" height="60" as="geometry" />
        </mxCell>
        <mxCell id="zzsRk16WgHVuCl2RyC7t-13" value="&lt;b&gt;Bryan&lt;br&gt;LASSERRE&lt;/b&gt;" style="rounded=1;whiteSpace=wrap;html=1;fillColor=#dae8fc;strokeColor=#6c8ebf;" parent="1" vertex="1">
          <mxGeometry x="570" y="420" width="120" height="60" as="geometry" />
        </mxCell>
        <mxCell id="zzsRk16WgHVuCl2RyC7t-17" style="edgeStyle=orthogonalEdgeStyle;shape=connector;rounded=0;orthogonalLoop=1;jettySize=auto;html=1;exitX=0.5;exitY=0;exitDx=0;exitDy=0;labelBackgroundColor=default;fontFamily=Helvetica;fontSize=11;fontColor=default;endArrow=none;endFill=0;strokeColor=default;strokeWidth=3;entryX=0.5;entryY=1;entryDx=0;entryDy=0;" parent="1" source="zzsRk16WgHVuCl2RyC7t-14" target="JoRg5VCLtStinsreE8dI-38" edge="1">
          <mxGeometry relative="1" as="geometry">
            <mxPoint x="850" y="380" as="targetPoint" />
          </mxGeometry>
        </mxCell>
        <mxCell id="zzsRk16WgHVuCl2RyC7t-14" value="&lt;b&gt;Bradley&lt;br&gt;LASSERRE&lt;/b&gt;" style="rounded=1;whiteSpace=wrap;html=1;fillColor=#dae8fc;strokeColor=#6c8ebf;" parent="1" vertex="1">
          <mxGeometry x="700" y="420" width="120" height="60" as="geometry" />
        </mxCell>
        <mxCell id="4FW21X1AEk7qneLOafgt-5" style="edgeStyle=orthogonalEdgeStyle;shape=connector;rounded=0;orthogonalLoop=1;jettySize=auto;html=1;exitX=0;exitY=0.5;exitDx=0;exitDy=0;entryX=0.5;entryY=0;entryDx=0;entryDy=0;labelBackgroundColor=default;fontFamily=Helvetica;fontSize=11;fontColor=default;endArrow=none;endFill=0;strokeColor=default;strokeWidth=3;" parent="1" source="4FW21X1AEk7qneLOafgt-1" target="4FW21X1AEk7qneLOafgt-2" edge="1">
          <mxGeometry relative="1" as="geometry" />
        </mxCell>
        <mxCell id="4FW21X1AEk7qneLOafgt-1" value="&lt;b&gt;Stéphane&lt;br&gt;KANCEL&lt;/b&gt;" style="rounded=1;whiteSpace=wrap;html=1;fillColor=#dae8fc;strokeColor=#6c8ebf;" parent="1" vertex="1">
          <mxGeometry x="-150" y="320" width="120" height="60" as="geometry" />
        </mxCell>
        <mxCell id="4FW21X1AEk7qneLOafgt-2" value="&lt;b&gt;Evans&lt;br&gt;KANCEL&lt;/b&gt;" style="rounded=1;whiteSpace=wrap;html=1;fillColor=#dae8fc;strokeColor=#6c8ebf;" parent="1" vertex="1">
          <mxGeometry x="-160" y="420" width="120" height="60" as="geometry" />
        </mxCell>
        <mxCell id="4FW21X1AEk7qneLOafgt-3" value="&lt;b&gt;Swan&lt;br&gt;KANCEL&lt;/b&gt;" style="rounded=1;whiteSpace=wrap;html=1;fillColor=#dae8fc;strokeColor=#6c8ebf;" parent="1" vertex="1">
          <mxGeometry x="-310" y="420" width="120" height="60" as="geometry" />
        </mxCell>
        <mxCell id="FLbfCy0wqAGYfXmiJbKD-1" value="&lt;b&gt;Franck&lt;br&gt;REMY&lt;/b&gt;" style="rounded=1;whiteSpace=wrap;html=1;fillColor=#dae8fc;strokeColor=#6c8ebf;" vertex="1" parent="1">
          <mxGeometry x="4390" y="220" width="120" height="60" as="geometry" />
        </mxCell>
      </root>
    </mxGraphModel>
  </diagram>
</mxfile>
